<svg xmlns="http://www.w3.org/2000/svg" xmlns:xlink="http://www.w3.org/1999/xlink" width="1024" height="1024" viewBox="0 0 1024 1024"><path fill="#0E5046" d="M235.29 0L788.379 0L788.803 0.0779169C794.962 1.16069 802.152 1.2866 808.391 2.26289C816.48 3.52873 824.769 5.30737 832.717 7.24409C891.08 21.3393 942.358 56.1053 977.056 105.104C997.814 134.456 1013.1 168.364 1019.29 203.889C1020.5 210.799 1021.45 217.751 1022.14 224.732C1022.56 228.809 1023.06 236.044 1024 239.787L1024 783.714L1023.91 784.126C1022.91 789.119 1022.39 797.669 1021.74 803.021C1020.46 812.919 1018.67 822.744 1016.38 832.459C1001.64 893.269 964.72 946.383 912.862 981.395C884.733 1000.41 852.993 1013.44 819.616 1019.67C813.908 1020.77 809.129 1021.61 803.372 1022.25C800.01 1022.62 792.448 1023.21 789.418 1024L235.129 1024C232.001 1023.21 225.121 1022.61 221.654 1022.21C215.678 1021.57 209.733 1020.68 203.834 1019.53C169.164 1013.08 136.293 999.225 107.463 978.917C57.3479 943.51 21.7042 891.196 7.09026 831.601C2.83628 813.845 3.03836 801.413 0.0911306 785.223L0 784.741L0 238.78C1.81186 231.957 3.24368 212.429 4.82226 203.536C11.327 168.817 25.1094 135.869 45.2627 106.86C79.4389 57.8345 130.098 22.7269 188.002 7.93985C196.717 5.72946 205.544 3.98341 214.444 2.70909C220.716 1.86184 228.772 1.23895 234.767 0.102831L235.29 0Z"></path><path fill="#5CCBB8" d="M483.027 59.711C490.301 59.0404 503.305 59.3534 510.98 59.3527L561.605 59.3215L637.495 59.2533C658.274 59.2552 682.558 58.43 702.929 61.8078C775.7 73.8738 840.043 124.769 865.123 194.532C887.061 255.555 865.537 323.553 800.759 344.05C780.182 350.561 759.129 349.122 737.888 349.108L689.512 349.066L575.852 349.028C560.365 349.014 545.204 348.507 529.738 349.822C501.916 352.187 480.043 367.489 468.207 392.838C473.876 392.647 479.547 392.534 485.219 392.5C511.834 392.371 538.451 392.406 565.066 392.606C584.145 392.625 603.942 392.053 622.912 393.728C706.407 401.098 788.469 477.73 788.823 564.43C789.227 594.684 777.41 623.821 756.047 645.247C724.354 677.051 691.908 675.606 651.009 675.277C632.382 675.109 613.754 675.059 595.127 675.125C578.698 675.354 558.356 674.338 542.416 675.594C525.534 676.941 509.477 683.455 496.429 694.25C480.466 707.625 470.199 726.578 467.716 747.255C466.512 757.423 466.879 770.433 466.9 780.942L467.034 833.421C467.075 850.915 467.94 873.257 463.697 889.928C459.965 904.335 452.963 917.689 443.234 928.952C391.52 989.001 300.107 969.901 246.583 923.119C204.308 886.168 178.779 834.568 175.363 778.538C174.005 756.255 174.515 733.894 174.517 711.543L174.547 603.243L174.6 470.628C174.623 418.206 172.195 370.796 184.519 319.328C197.504 265.035 223.363 214.664 259.914 172.47C316.426 106.83 396.661 66.28 483.027 59.711Z"></path><path fill="#0E5046" d="M500.365 103.238L500.884 103.227C545.386 102.469 591.111 103.039 635.692 103.174L671.248 103.083C682.557 103.04 695.258 102.64 706.302 104.978C736.569 111.384 758.483 138.813 758.726 169.531C758.963 187.434 751.94 204.67 739.257 217.308C730.077 226.708 718.352 233.222 705.521 236.051C695.909 238.122 683.015 237.908 673.034 237.926L640.708 237.945L554.354 237.923C536.926 237.676 519.496 237.549 502.066 237.543C460.931 237.882 423.25 252.963 394.216 282.487C369.925 307.128 354.756 339.311 351.209 373.73C349.572 390.558 350.42 416.324 350.576 433.967C411.011 433.497 471.449 433.381 531.886 433.621L582.653 433.559C610.37 433.52 634.146 431.317 655.711 452.174C668.476 464.531 675.776 481.475 675.99 499.24C676.327 517.366 669.287 534.85 656.485 547.686C647.878 556.185 637.167 562.243 625.448 565.239C612.476 568.49 590.783 567.52 576.64 567.507L518.125 567.475L469.058 567.407C460.062 567.385 449.221 567.096 440.373 567.584C421.01 568.555 402.384 575.315 386.905 586.989C371.831 598.389 358.925 616.603 354.09 634.888C348.996 654.15 350.447 679.85 350.478 700.142L350.522 763.172C350.53 776.857 351.432 792.689 347.717 805.799C340.143 832.528 314.123 852.274 286.698 853.371C269.215 853.896 252.227 847.529 239.395 835.643C226.341 823.409 218.678 805.781 218.495 788.014C218.209 760.357 218.383 732.549 218.425 704.894L218.47 557.414L218.389 450.599C218.298 408.864 215.856 372.784 225.61 331.708C238.037 279.124 264.179 230.773 301.374 191.58C353.447 137.025 424.976 105.27 500.365 103.238Z"></path></svg>